<svg xmlns="http://www.w3.org/2000/svg" viewBox="0 0 64 64"><path fill="#91cc04" d="M35,40c0,2.76-3,5-3,5s-3-2.24-3-5,3-5,3-5S35,37.24,35,40Z"/><circle cx="32" cy="16" r="6" fill="#ffda44"/><path fill="#5eac24" d="M32,56H30a4,4,0,0,1-4-4h2A4,4,0,0,1,32,56Z"/><path fill="#91cc04" d="M58 47a6.99 6.99 0 0 0-6.923 6.016.193.193 0 0 0-.154 0A6.99 6.99 0 0 0 44 47H42a7 7 0 0 0 7 7h1v6a1 1 0 0 0 2 0V54h1a7 7 0 0 0 7-7zM20 47a6.99 6.99 0 0 0-6.923 6.016A.7.7 0 0 0 13 53a.7.7 0 0 0-.077.016A6.99 6.99 0 0 0 6 47H4a7 7 0 0 0 7 7h1v6a1 1 0 0 0 2 0V54h1a7 7 0 0 0 7-7z"/><path fill="#4e901e" d="M39,41a6.99,6.99,0,0,0-6.1,3.574.988.988,0,0,0-1.794,0A6.99,6.99,0,0,0,25,41H23a7,7,0,0,0,7,7h1V60a1,1,0,0,0,2,0V48h1a7,7,0,0,0,7-7Z"/><rect width="2" height="2" x="31" y="5" fill="#ff5023"/><rect width="2" height="2" x="23.929" y="7.929" fill="#ff5023" transform="rotate(-45 24.928 8.928)"/><rect width="2" height="2" x="21" y="15" fill="#ff5023"/><rect width="2" height="2" x="23.929" y="22.071" fill="#ff5023" transform="rotate(-45 24.93 23.07)"/><rect width="2" height="2" x="31" y="25" fill="#ff5023"/><rect width="2" height="2" x="38.071" y="22.071" fill="#ff5023" transform="rotate(-45 39.071 23.071)"/><rect width="2" height="2" x="41" y="15" fill="#ff5023"/><rect width="2" height="2" x="38.071" y="7.929" fill="#ff5023" transform="rotate(-45 39.072 8.929)"/><rect width="2" height="2" x="31" y="2" fill="#ff5023"/><rect width="2" height="2" x="21.808" y="5.808" fill="#ff5023" transform="rotate(-45 22.807 6.808)"/><rect width="2" height="2" x="18" y="15" fill="#ff5023"/><rect width="2" height="2" x="21.808" y="24.192" fill="#ff5023" transform="rotate(-45 22.807 25.193)"/><rect width="2" height="2" x="31" y="28" fill="#ff5023"/><rect width="2" height="2" x="40.192" y="24.192" fill="#ff5023" transform="rotate(-45 41.192 25.193)"/><rect width="2" height="2" x="44" y="15" fill="#ff5023"/><rect width="2" height="2" x="40.192" y="5.808" fill="#ff5023" transform="rotate(-45 41.192 6.808)"/><rect width="60" height="2" x="2" y="60" fill="#a78966"/><ellipse cx="26.5" cy="43" fill="#75a950" rx="1" ry="1.5" transform="rotate(-60 26.5 43)"/><ellipse cx="37.5" cy="43" fill="#75a950" rx="1.5" ry="1" transform="rotate(-30 37.5 43)"/></svg>