<svg xmlns="http://www.w3.org/2000/svg" id="Layer_3" enable-background="new 0 0 64 64" viewBox="0 0 64 64"><path fill="#4c4a4f" d="M3 3H1C.448 3 0 3.448 0 4s.448 1 1 1h2c.552 0 1-.448 1-1S3.552 3 3 3zM11 3H7V1c0-.552-.448-1-1-1S5 .448 5 1v7c0 .552.448 1 1 1s1-.448 1-1V5h4c.552 0 1-.448 1-1S11.552 3 11 3zM55 3h-2c-.552 0-1 .448-1 1s.448 1 1 1h2c.552 0 1-.448 1-1S55.552 3 55 3zM63 3h-4V1c0-.552-.448-1-1-1s-1 .448-1 1v7c0 .552.448 1 1 1s1-.448 1-1V5h4c.552 0 1-.448 1-1S63.552 3 63 3z"/><polygon fill="#cc8964" points="63 63 43 63 41.89 61.89 45 58 47 58 49 56 52 56 54 56 57 59 59 59"/><polygon fill="#cc8964" points="41.89 61.89 41 63 24 63 22.33 61.33 25 58 27 58 29 56 32 56 34 56 37 59 39 59"/><path fill="#9a4738" d="M43,63l-3,0H21l1.6-2h8.652c0.473,0,0.92-0.215,1.215-0.585v0c0.492-0.618,0.442-1.507-0.117-2.065l-0.895-0.895C31.164,57.164,30.769,57,30.357,57H29l-0.5-0.5L29,56h5l3,3h2L43,63z"/><path fill="#9a4738" d="M63,63l-3,0H41l1.6-2h8.652c0.473,0,0.92-0.215,1.215-0.585v0c0.492-0.618,0.442-1.507-0.117-2.065l-0.895-0.895C51.164,57.164,50.769,57,50.357,57H49l-0.5-0.5L49,56h5l3,3h2L63,63z"/><polygon fill="#cc8964" points="8 58 10 56 12 56 15 56 18 59 20 59 22.33 61.33 21 63 2 63 6 58"/><path fill="#9a4738" d="M22.33,61.33L21,63H2l1.6-2h8.652c0.473,0,0.92-0.215,1.215-0.585l0,0c0.492-0.618,0.442-1.507-0.117-2.065l-0.895-0.895C12.164,57.164,11.769,57,11.357,57H10l-0.5-0.5L10,56h5l3,3h2L22.33,61.33z"/><path fill="#aac348" d="M46 46c5 0 6 4 6 4-7 7-9-4-9-4H46zM26 46c5 0 6 4 6 4-7 7-9-4-9-4H26zM6 46c5 0 6 4 6 4-7 7-9-4-9-4H6z"/><path fill="#879a39" d="M12 50c-7 7-9-4-9-4S8 51 12 50zM32 50c-7 7-9-4-9-4S28 51 32 50zM52 50c-7 7-9-4-9-4S48 51 52 50z"/><rect width="6" height="3" x="29" y="26" fill="#f9d535"/><path fill="#eaeaea" d="M45,7H19c0-2.21,1.79-4,4-4h18C43.21,3,45,4.79,45,7z"/><polygon fill="#f9d535" points="45 7 45 12 41 12 23 12 19 12 19 7"/><path fill="#b8b8b7" d="M38,7V5c0-0.73-0.2-1.41-0.54-2H41c2.21,0,4,1.79,4,4H38z"/><path fill="#f9a94b" d="M45,7v5H19v-2h16c1.657,0,3-1.343,3-3v0H45z"/><path fill="#222227" d="M39.25,24.28C39.1,25.27,38.26,26,37.27,26H35h-6h-2.27c-0.99,0-1.83-0.73-1.98-1.72L24.43,22H32h7.57L39.25,24.28z"/><polygon fill="#686868" points="8 8 11 12 5 12 5 8 6 8"/><polygon fill="#686868" points="58 8 59 8 59 12 53 12 56 8"/><path fill="#879a39" d="M59,12v4c0,1.1-0.9,2-2,2h-2h-2v-6H59z"/><path fill="#aac348" d="M11,12v6H9H7c-1.1,0-2-0.9-2-2v-4H11z"/><path fill="#eaeaea" d="M24.43 22H19c-1.1 0-2-.9-2-2 0-.55-.22-1.05-.59-1.41C16.05 18.22 15.55 18 15 18h-1-3v-6h6 2 4L24.43 22zM47 12h6v6h-3-1c-1.1 0-2 .9-2 2 0 .55-.22 1.05-.59 1.41C46.05 21.78 45.55 22 45 22h-5.43L41 12h4H47z"/><polygon fill="#686868" points="41 12 39.57 22 32 22 24.43 22 23 12"/><path fill="#b8b8b7" d="M24.43 22H19c-1.1 0-2-.9-2-2 0-.55-.22-1.05-.59-1.41C16.05 18.22 15.55 18 15 18h-4v-2h12.57L24.43 22zM53 12v6h-4c-1.1 0-2 .9-2 2 0 .55-.22 1.05-.59 1.41C46.05 21.78 45.55 22 45 22h-5.43l.86-6H43c2.21 0 4-1.79 4-4H53z"/><polygon fill="#585858" points="40.43 16 39.57 22 24.43 22 23.57 16"/><path fill="#879a39" d="M11,16v2H7c-1.1,0-2-0.9-2-2H11z"/><path fill="#fff" d="M22.25 8.875c-.643 0-.645 1 0 1C22.893 9.875 22.895 8.875 22.25 8.875zM25.187 8.938h-1c-.643 0-.645 1 0 1h1C25.831 9.938 25.832 8.938 25.187 8.938z"/><path fill="#f9d535" d="M35,38c0,1.66-1.34,3-3,3s-3-1.34-3-3s3-5,3-5S35,36.34,35,38z"/><path fill="#f9a94b" d="M35,38c0,1.66-1.34,3-3,3c-1.31,0-2.42-0.83-2.82-2H30c1.105,0,2-0.895,2-2v-4C32,33,35,36.34,35,38z"/><path fill="#f9d535" d="M17.414,39.828c-1.174,1.174-3.069,1.174-4.243,0s-1.174-3.069,0-4.243s5.657-1.414,5.657-1.414S18.588,38.655,17.414,39.828z"/><path fill="#f9a94b" d="M17.414,39.828c-1.174,1.174-3.069,1.174-4.243,0c-0.926-0.926-1.124-2.298-0.58-3.408l0.58,0.58c0.781,0.781,2.047,0.781,2.828,0l2.828-2.828C18.828,34.172,18.588,38.655,17.414,39.828z"/><path fill="#f9d535" d="M50.828,35.586c1.174,1.174,1.174,3.069,0,4.243s-3.069,1.174-4.243,0s-1.414-5.657-1.414-5.657S49.655,34.412,50.828,35.586z"/><path fill="#f9a94b" d="M50.828,35.586c1.174,1.174,1.174,3.069,0,4.243c-0.926,0.926-2.298,1.124-3.408,0.58l0.58-0.58c0.781-0.781,0.781-2.047,0-2.828l-2.828-2.828C45.172,34.172,49.655,34.412,50.828,35.586z"/><path fill="#9a4738" d="M63,64H1c-0.552,0-1-0.448-1-1s0.448-1,1-1h62c0.552,0,1,0.448,1,1S63.552,64,63,64z"/><path fill="#bbcf6b" d="M12 56c-.552 0-1-.448-1-1v-6c0-.552.448-1 1-1s1 .448 1 1v6C13 55.552 12.552 56 12 56zM32 56c-.552 0-1-.448-1-1v-5c0-.552.448-1 1-1s1 .448 1 1v5C33 55.552 32.552 56 32 56zM52 56c-.552 0-1-.448-1-1v-5c0-.552.448-1 1-1s1 .448 1 1v5C53 55.552 52.552 56 52 56z"/><path fill="#222227" d="M12.001 28c-.072 0-.145-.008-.218-.024-.539-.12-.879-.654-.759-1.193l2-9c.119-.54.655-.879 1.193-.759.539.12.879.654.759 1.193l-2 9C12.873 27.683 12.459 28 12.001 28zM51.999 28c-.458 0-.872-.317-.975-.783l-2-9c-.12-.539.22-1.073.759-1.193.539-.119 1.073.22 1.193.759l2 9c.12.539-.22 1.073-.759 1.193C52.144 27.992 52.071 28 51.999 28zM9 22H7c-.552 0-1-.448-1-1v-3c0-.552.448-1 1-1h2c.552 0 1 .448 1 1v3C10 21.552 9.552 22 9 22zM57 22h-2c-.552 0-1-.448-1-1v-3c0-.552.448-1 1-1h2c.552 0 1 .448 1 1v3C58 21.552 57.552 22 57 22z"/><path fill="#aac348" d="M18,46h3c0,0-2,11-9,4C12,50,13,46,18,46z"/><path fill="#879a39" d="M12,50c7,7,9-4,9-4S16,51,12,50z"/><path fill="#aac348" d="M38,46h3c0,0-2,11-9,4C32,50,33,46,38,46z"/><path fill="#879a39" d="M32,50c7,7,9-4,9-4S36,51,32,50z"/><path fill="#aac348" d="M58,46h3c0,0-2,11-9,4C52,50,53,46,58,46z"/><path fill="#879a39" d="M52,50c7,7,9-4,9-4S56,51,52,50z"/></svg>