<svg xmlns="http://www.w3.org/2000/svg" width="32" height="32" viewBox="0 0 32 32"><g transform="translate(999.531 -1406.633)"><path fill="#cad1d8" d="m -976.51569,1411.3622 c 0.554,0 1,0.446 1,1 0,0.554 -0.446,1 -1,1 -0.554,0 -1,-0.446 -1,-1 0,-0.554 0.446,-1 1,-1 z"/><path fill="#2b4255" fill-rule="evenodd" style="line-height:normal;text-indent:0;text-align:start;text-decoration-line:none;text-decoration-style:solid;text-decoration-color:#000;text-transform:none;block-progression:tb;isolation:auto;mix-blend-mode:normal" d="m -985.51172,1414.5215 a 0.50005,0.50005 0 0 0 -0.4414,0.2578 l -1.5,2.5977 a 0.50050004,0.50050004 0 1 0 0.86718,0.5 l 1.5,-2.5977 a 0.50005,0.50005 0 0 0 -0.42578,-0.7578 z" color="#000" font-family="sans-serif" font-weight="400" overflow="visible" white-space="normal"/><path fill="#2b4255" fill-rule="evenodd" style="line-height:normal;text-indent:0;text-align:start;text-decoration-line:none;text-decoration-style:solid;text-decoration-color:#000;text-transform:none;block-progression:tb;isolation:auto;mix-blend-mode:normal" d="m -986.19336,1415.8906 a 0.50004997,0.50004997 0 0 0 -0.21289,0.9356 l 3.23633,1.8691 a 0.5005087,0.5005087 0 1 0 0.5,-0.8672 l -3.23633,-1.8672 a 0.50004997,0.50004997 0 0 0 -0.28711,-0.07 z" color="#000" font-family="sans-serif" font-weight="400" overflow="visible" white-space="normal"/><path fill="#f05542" fill-rule="evenodd" d="m -974.23977,1428.6329 -10.2665,0 0,2 9.01239,0"/><path fill="#f17f53" fill-rule="evenodd" d="m -984.50627,1428.6329 9.23525,3e-4 4.75532,0 0,-10.0002 c 0,-1.108 -0.892,-2 -2,-2 l -2.93779,0 -2.10797,0 -4.25624,0 -0.698,-10e-5 -1,4 1.00899,0 -0.01,0.01 c -0.12325,1.8964 -1.46482,3.483 -3.29344,3.8949"/><path fill="#f05542" fill-rule="evenodd" style="line-height:normal;text-indent:0;text-align:start;text-decoration-line:none;text-decoration-style:solid;text-decoration-color:#000;text-transform:none;block-progression:tb;isolation:auto;mix-blend-mode:normal" d="m -974.01562,1421.1328 0,7 1,0 0,-7 -1,0 z" color="#000" font-family="sans-serif" font-weight="400" overflow="visible" white-space="normal"/><path fill="#f8b84e" d="m -994.5157,1420.6989 0,-5.029 0,-1.037 1.9,0 c 0.554,0 0.9179,0.4684 1,1.037 l 0.75025,5.1962"/><path fill="#2b4255" d="M-989.79107 1434.7761c-1.66715.9527-.18379-.4529-2.06373-.062-1.87994.3908.0407 1.0887-1.86799.8794-1.90871-.2092.1175-.4744-1.63314-1.2632-1.75064-.7888-.60697.9047-2.02817-.3865-1.42121-1.2911.37391-.3147-.57874-1.9818-.95266-1.6672-1.0228.3751-1.41366-1.5048-.39085-1.88.48751-.035.69672-1.9436.20921-1.9087-1.04796-.2977-.25917-2.0483.78879-1.7507.41489.2583 1.70605-1.1629 1.29116-1.4212-.67284-.8568.99431-1.8095 1.66714-.9526.18379.4529 2.06373.062 1.87994-.3909-.0407-1.0887 1.86799-.8795 1.90871.2092-.1175.4744 1.63314 1.2632 1.75064.7888.60696-.9047 2.02817.3865 1.4212 1.2912-.37392.3147.57874 1.9819.95265 1.6671 1.0228-.3752 1.41365 1.5048.39085 1.8799-.4875.035-.69671 1.9435-.20921 1.9088 1.04796.2977.25917 2.0484-.7888 1.7506-.41489-.2584-1.70605 1.1628-1.29117 1.4212.67284.8569-.99431 1.8095zM-968.51569 1431.6328a4 4 0 0 1-4 4 4 4 0 0 1-4-4 4 4 0 0 1 4-4 4 4 0 0 1 4 4z"/><path fill="#576d7e" d="m -971.51569,1431.6328 a 1,1 0 0 1 -1,1 1,1 0 0 1 -1,-1 1,1 0 0 1 1,-1 1,1 0 0 1 1,1 z"/><path fill="#f05542" style="line-height:normal;text-indent:0;text-align:start;text-decoration-line:none;text-decoration-style:solid;text-decoration-color:#000;text-transform:none;block-progression:tb;isolation:auto;mix-blend-mode:normal" d="m -994.10742,1420.2012 c -1.94405,0.2376 -3.81027,1.1071 -5.27149,2.5683 a 0.50005,0.50005 0 1 0 0.70703,0.7071 c 2.60118,-2.6012 6.63206,-3.0953 9.78321,-1.1973 3.15115,1.898 4.60064,5.6934 3.51758,9.209 a 0.50071759,0.50071759 0 0 0 0.95703,0.2949 c 1.21682,-3.9497 -0.41866,-8.227 -3.95899,-10.3594 -1.77016,-1.0662 -3.79032,-1.4603 -5.73437,-1.2226 z" color="#000" font-family="sans-serif" font-weight="400" overflow="visible" white-space="normal"/><path fill="#f05542" fill-rule="evenodd" d="m -970.4874,1420.6329 -5.0947,0 -2.16981,0 -4.06979,0 -1.694,0 1,-4 0.698,10e-5 4.25624,0 2.10797,0 2.93779,0 c 1.108,0 2,0.892 2,2 l 0,9.5013"/><path fill="#cad1d8" d="m -975.5157,1412.3622 0,10.2332 c 0,0.5745 -0.446,1.037 -1,1.037 l 0,0 c -0.554,0 -1,-0.4625 -1,-1.037 l 0,-10.2332 z"/><path fill="#34485c" fill-rule="evenodd" style="line-height:normal;text-indent:0;text-align:start;text-decoration-line:none;text-decoration-style:solid;text-decoration-color:#000;text-transform:none;block-progression:tb;isolation:auto;mix-blend-mode:normal" d="M-972.01562 1423.1328l0 1 1.5 0 0-1-1.5 0zM-972.01562 1425.1328l0 1 1.5 0 0-1-1.5 0zM-981.01562 1422.1328l0 1 2 0 0-1-2 0zM-981.01562 1424.1328l0 1 2 0 0-1-2 0zM-983.01562 1426.1328l0 1 4 0 0-1-4 0z" color="#000" font-family="sans-serif" font-weight="400" overflow="visible" white-space="normal"/><path fill="#2b4255" d="M-981.01569 1418.6328a.5.5 0 0 1-.5.5.5.5 0 0 1-.5-.5.5.5 0 0 1 .5-.5.5.5 0 0 1 .5.5zM-979.01569 1418.6328a.5.5 0 0 1-.5.5.5.5 0 0 1-.5-.5.5.5 0 0 1 .5-.5.5.5 0 0 1 .5.5zM-973.01569 1418.6328a.5.5 0 0 1-.5.5.5.5 0 0 1-.5-.5.5.5 0 0 1 .5-.5.5.5 0 0 1 .5.5z"/><path fill="#576d7e" d="m -989.51561,1429.1328 a 3.5000103,3.5000103 0 0 1 -3.50001,3.5 3.5000103,3.5000103 0 0 1 -3.50002,-3.5 3.5000103,3.5000103 0 0 1 3.50002,-3.5 3.5000103,3.5000103 0 0 1 3.50001,3.5 z"/><path fill="#34485c" d="M-992.51562 1429.1328a.5.5 0 0 1-.5.5.5.5 0 0 1-.5-.5.5.5 0 0 1 .5-.5.5.5 0 0 1 .5.5zM-992.51562 1427.6328a.5.5 0 0 1-.5.5.5.5 0 0 1-.5-.5.5.5 0 0 1 .5-.5.5.5 0 0 1 .5.5zM-992.51562 1430.6328a.5.5 0 0 1-.5.5.5.5 0 0 1-.5-.5.5.5 0 0 1 .5-.5.5.5 0 0 1 .5.5z"/><path fill="#34485c" d="M3.3179522-1740.2535a.5.5 0 0 1-.5.5.5.5 0 0 1-.5-.5.5.5 0 0 1 .5-.5.5.5 0 0 1 .5.5zM6.284749-1740.3015a.5.5 0 0 1-.5.5.5.5 0 0 1-.5-.5.5.5 0 0 1 .5-.5.5.5 0 0 1 .5.5z" transform="rotate(-145.349)"/><path fill="#34485c" d="M-1600.2776-686.27917a.5.5 0 0 1-.5.5.5.5 0 0 1-.5-.5.5.5 0 0 1 .5-.5.5.5 0 0 1 .5.5zM-1597.2467-686.22968a.5.5 0 0 1-.5.5.5.5 0 0 1-.5-.5.5.5 0 0 1 .5-.5.5.5 0 0 1 .5.5z" transform="scale(1 -1) rotate(31.983)"/><path fill="#cad1d8" d="m -976.99995,1409.6328 0.9999,0 c 3e-5,0 5e-5,0 5e-5,10e-5 l 0,2.7293 c 0,0 -2e-5,0 -5e-5,0 l -0.9999,0 c -3e-5,0 -5e-5,0 -5e-5,0 l 0,-2.7293 c 0,-10e-5 2e-5,-10e-5 5e-5,-10e-5 z"/></g></svg>