<svg xmlns="http://www.w3.org/2000/svg" viewBox="0 0 64 64"><rect width="44" height="58" x="8" y="3" fill="#57565c" rx="2"/><rect width="38" height="52" x="11" y="6" fill="#bddbff" rx="1"/><circle cx="22" cy="17" r="7" fill="#ff9811"/><path fill="#ffdaaa" d="M40,42V34a2.006,2.006,0,0,1,2-2,2.015,2.015,0,0,1,2,2v7a2.006,2.006,0,0,1,2-2,2.015,2.015,0,0,1,2,2,2,2,0,0,1,2-2,2.015,2.015,0,0,1,2,2v1a2.015,2.015,0,0,1,2-2,2.006,2.006,0,0,1,2,2V54l-3,4v4H40V57l-3-4V45Z"/><polygon fill="#c0ab91" points="26 38 25 45 19 45 18.43 41 18 38 22 38 26 38"/><path fill="#91dc5a" d="M26,31h2a4,4,0,0,1-4,4H22A4,4,0,0,1,26,31Z"/><path fill="#64c37d" d="M20,34a5,5,0,0,1-5-5h2a5,5,0,0,1,5,5Z"/><path fill="#ff9811" d="M38,25a2,2,0,0,1-4,0,2,2,0,0,1,2-2A2.006,2.006,0,0,1,38,25Z"/><path fill="#ffda44" d="M43 11a2 2 0 0 1-3.92.55A1.976 1.976 0 0 1 39 11a2 2 0 0 1 4 0zM28.32 14A6.844 6.844 0 0 1 29 17H22V10A6.97 6.97 0 0 1 28.32 14z"/><path d="M54,39a3,3,0,0,0-1,.18V5a3.009,3.009,0,0,0-3-3H10A3.009,3.009,0,0,0,7,5V59a3.009,3.009,0,0,0,3,3H41V57a.984.984,0,0,0-.2-.6L38,52.67V45.41l1-1V48h2V34a1,1,0,0,1,2,0V48h2V41a1,1,0,0,1,2,0v7h2V41a1,1,0,0,1,2,0v7h2V42a1,1,0,0,1,2,0V53.67L52.2,57.4a.984.984,0,0,0-.2.6v4h2V58.33l2.8-3.73A.984.984,0,0,0,57,54V42A3.009,3.009,0,0,0,54,39Zm-6-.22A2.974,2.974,0,0,0,46,38a3,3,0,0,0-1,.18V34a3,3,0,0,0-6,0v7.59l-2.71,2.7A1.033,1.033,0,0,0,36,45v8a.984.984,0,0,0,.2.6L38.75,57H12V7H48Zm3-.6A3,3,0,0,0,50,38V6a1,1,0,0,0-1-1H12a2.006,2.006,0,0,0-2,2V57a2.006,2.006,0,0,0,2,2H39v1H10a1,1,0,0,1-1-1V5a1,1,0,0,1,1-1H50a1,1,0,0,1,1,1Z"/><path d="M28,30H26a4.98,4.98,0,0,0-3.556,1.493A6,6,0,0,0,17,28H15a1,1,0,0,0-1,1,6.006,6.006,0,0,0,6,6h1v2H18a1,1,0,0,0-.99,1.142l1,7A1,1,0,0,0,19,46h6a1,1,0,0,0,.99-.858l1-7A1,1,0,0,0,26,37H23V36h1a5.006,5.006,0,0,0,5-5A1,1,0,0,0,28,30Zm-8,3a4.006,4.006,0,0,1-3.873-3H17a4.006,4.006,0,0,1,3.873,3Zm-.133,11-.285-2h4.836l-.285,2ZM24.7,40H19.3l-.143-1h5.694ZM24,34h-.829A3.006,3.006,0,0,1,26,32h.829A3.006,3.006,0,0,1,24,34Z"/><rect width="4" height="2" x="42" y="23"/><rect width="7" height="2" x="39" y="28"/><rect width="6" height="2" x="38" y="16"/><rect width="6" height="2" x="14" y="48"/><rect width="12" height="2" x="14" y="52"/><path d="M41,8a3.009,3.009,0,0,0-3,3v.03L34.72,13h-5.8a8,8,0,1,0-.68,9H32.5l1,1.34A3.059,3.059,0,0,0,33,25a3,3,0,1,0,3-3,2.914,2.914,0,0,0-.89.15L33.8,20.4A1.014,1.014,0,0,0,33,20H29.41A7.9,7.9,0,0,0,30,17a8.242,8.242,0,0,0-.26-2H35a1,1,0,0,0,.51-.14l3.21-1.93A2.975,2.975,0,0,0,41,14a3,3,0,0,0,0-6ZM27.19,20H23v2h2.31A6,6,0,1,1,21,11.09V17a1,1,0,0,0,1,1h5.91A5.985,5.985,0,0,1,27.19,20ZM23,16V11.09A5.97,5.97,0,0,1,26.46,13H25v2h2.65a6.671,6.671,0,0,1,.26,1Zm13,8a1,1,0,1,1-1,1A1,1,0,0,1,36,24Zm5-12a1,1,0,1,1,1-1A1,1,0,0,1,41,12Z"/></svg>