<svg height="512" viewBox="0 0 256 256" width="512" xmlns="http://www.w3.org/2000/svg"><path d="m119.176 173.5.011-.073-.006.007c2.944-38.826-46.676-43.707-64.211-44.221l-3.046-.086a2.385 2.385 0 0 0 -2.452 2.452c.953 33.769 10.82 69.8 44.307 67.257l-.007.006.073-.012 21.835-3.5z" fill="#6bdddd"/><g fill="#3762cc"><path d="m90.5 200.966a33.828 33.828 0 0 1 -23.4-8.68c-15.2-13.694-19.062-40.539-19.63-60.647a4.385 4.385 0 0 1 4.508-4.507l3.045.086c12.343.361 42.656 2.991 57.569 19.557 6.463 7.18 9.354 16.149 8.592 26.658a1.964 1.964 0 0 1 -.025.314l-.012.073-3.5 21.835a2 2 0 0 1 -1.647 1.658l-21.835 3.5a2.007 2.007 0 0 1 -.231.023q-1.746.13-3.434.13zm-38.645-69.836a.377.377 0 0 0 -.271.112.381.381 0 0 0 -.113.283c.546 19.329 4.165 45.043 18.31 57.789 6.338 5.711 14.354 8.241 23.821 7.534l20.332-3.255 3.255-20.334c.709-9.433-1.837-17.443-7.567-23.808-13.88-15.418-42.885-17.888-54.711-18.235l-3.044-.086z"/><path d="m128 249.994a2 2 0 0 1 -2-2v-22.894a39.845 39.845 0 0 0 -11.747-28.36l-55.121-55.121a2 2 0 1 1 2.828-2.828l55.122 55.121a43.818 43.818 0 0 1 12.918 31.188v22.894a2 2 0 0 1 -2 2z"/><path d="m89.636 171.244a2 2 0 0 1 -2-2v-21.122a2 2 0 0 1 4 0v21.122a2 2 0 0 1 -2 2z"/><path d="m103.2 184.86h-27.131a2 2 0 0 1 0-4h27.131a2 2 0 0 1 0 4z"/><path d="m76.6 158.123h-15.34a2 2 0 1 1 0-4h15.34a2 2 0 0 1 0 4z"/></g><path d="m136.824 173.5-.011-.073.006.007c-2.944-38.826 46.676-43.707 64.211-44.221l3.046-.086a2.385 2.385 0 0 1 2.452 2.452c-.953 33.769-10.82 69.8-44.307 67.257l.007.006-.073-.012-21.835-3.5z" fill="#6bdddd"/><path d="m165.5 200.966q-1.61 0-3.271-.12a2.028 2.028 0 0 1 -.319-.026l-21.91-3.507a2 2 0 0 1 -1.658-1.658l-3.5-21.835-.012-.073a2.032 2.032 0 0 1 -.026-.328c-.758-10.5 2.132-19.467 8.593-26.644 14.913-16.567 45.226-19.2 57.567-19.557l3.048-.086a4.385 4.385 0 0 1 4.507 4.506c-.568 20.109-4.434 46.955-19.631 60.648a33.824 33.824 0 0 1 -23.388 8.68zm-3.1-4.118c9.466.708 17.482-1.824 23.82-7.534 14.144-12.745 17.764-38.46 18.31-57.789a.384.384 0 0 0 -.383-.4h-.013l-3.046.086c-11.824.347-40.829 2.817-54.709 18.235-5.732 6.368-8.277 14.383-7.566 23.82l3.254 20.322z" fill="#3762cc"/><path d="m128 227.1a2 2 0 0 1 -2-2 43.821 43.821 0 0 1 12.918-31.188l55.121-55.121a2 2 0 0 1 2.828 2.828l-55.121 55.121a39.852 39.852 0 0 0 -11.746 28.36 2 2 0 0 1 -2 2z" fill="#3762cc"/><path d="m166.364 171.244a2 2 0 0 1 -2-2v-21.122a2 2 0 0 1 4 0v21.122a2 2 0 0 1 -2 2z" fill="#3762cc"/><path d="m179.931 184.86h-27.131a2 2 0 0 1 0-4h27.133a2 2 0 1 1 0 4z" fill="#3762cc"/><path d="m194.739 158.123h-15.339a2 2 0 0 1 0-4h15.343a2 2 0 0 1 0 4z" fill="#3762cc"/><path d="m162.092 84.738a34.264 34.264 0 0 0 -68.354 3.451 33.98 33.98 0 0 0 3.867 15.785 191.765 191.765 0 0 1 10.224 22.159l2.743 7.422h34.856l3.128-8.464a171.151 171.151 0 0 1 9.722-20.9 34.1 34.1 0 0 0 3.814-19.453z" fill="#ffea92"/><path d="m137.414 116.609h-18.83a4.066 4.066 0 0 1 0-8.132h18.83a4.066 4.066 0 0 1 0 8.132z" fill="#e0ebfc"/><path d="m122.286 137.621a4.065 4.065 0 0 1 -4-3.36l-4.973-28.2a4.066 4.066 0 1 1 8.008-1.412l4.974 28.2a4.066 4.066 0 0 1 -3.3 4.71 4.108 4.108 0 0 1 -.709.062z" fill="#f9a7a7"/><path d="m133.714 137.621a4.108 4.108 0 0 1 -.711-.062 4.066 4.066 0 0 1 -3.3-4.71l4.974-28.2a4.066 4.066 0 1 1 8.008 1.412l-4.973 28.2a4.065 4.065 0 0 1 -3.998 3.36z" fill="#f9a7a7"/><rect fill="#e0ebfc" height="14.196" rx="1.903" width="41.875" x="107.062" y="133.555"/><path d="m109.452 147.751h37.1a0 0 0 0 1 0 0v14.259a12.984 12.984 0 0 1 -12.984 12.984h-11.133a12.984 12.984 0 0 1 -12.984-12.984v-14.259a0 0 0 0 1 .001 0z" fill="#4671c6"/><path d="m145.428 135.555h-34.856a2 2 0 0 1 -1.876-1.307l-2.743-7.422a191.08 191.08 0 0 0 -10.121-21.926 36.259 36.259 0 1 1 68.25-20.357 36.162 36.162 0 0 1 -4.038 20.592 170.968 170.968 0 0 0 -9.611 20.649l-3.129 8.464a2 2 0 0 1 -1.876 1.307zm-33.463-4h32.07l2.646-7.158a174.671 174.671 0 0 1 9.832-21.141 32.193 32.193 0 0 0 3.587-18.322 32.264 32.264 0 0 0 -64.364 3.254 31.769 31.769 0 0 0 3.639 14.859 194.3 194.3 0 0 1 10.328 22.391z" fill="#3762cc"/><path d="m147.034 149.751h-38.068a3.908 3.908 0 0 1 -3.9-3.9v-10.39a3.908 3.908 0 0 1 3.9-3.9h38.068a3.907 3.907 0 0 1 3.9 3.9v10.39a3.907 3.907 0 0 1 -3.9 3.9zm-37.972-4h37.875v-10.2h-37.875z" fill="#3762cc"/><path d="m133.564 176.994h-11.128a15 15 0 0 1 -14.984-14.984v-14.259a2 2 0 0 1 2-2h37.1a2 2 0 0 1 2 2v14.259a15 15 0 0 1 -14.988 14.984zm-22.112-27.243v12.259a11 11 0 0 0 10.984 10.984h11.128a11 11 0 0 0 10.984-10.984v-12.259z" fill="#3762cc"/><rect fill="#ffea92" height="38.964" rx="6.091" width="12.182" x="121.908" y="8.006"/><rect fill="#ffea92" height="38.964" rx="6.091" transform="matrix(.707 -.707 .707 .707 -17.93 67.352)" width="12.182" x="66.245" y="35.837"/><rect fill="#ffea92" height="38.964" rx="6.091" transform="matrix(-.707 -.707 .707 -.707 274.413 224.304)" width="12.182" x="177.571" y="35.837"/><rect fill="#ffea92" height="38.964" rx="6.091" transform="matrix(0 1 -1 0 298.869 -107.42)" width="12.182" x="197.053" y="76.242"/><rect fill="#ffea92" height="38.964" rx="6.091" transform="matrix(0 1 -1 0 148.58 42.869)" width="12.182" x="46.764" y="76.242"/></svg>