<svg xmlns="http://www.w3.org/2000/svg" enable-background="new 0 0 100 100" viewBox="0 0 100 100"><path d="M92.3,30L80.5,17.1c-1.2-1.3-2.7-2.3-4.4-2.8L53.6,7.5c-1.9-0.6-3.9-0.6-5.8,0l-30.9,9.4c0,0-0.1,0-0.1,0
	c-2.2,0.8-3.9,2.6-4.5,4.9c-0.9,2.8-0.1,5.7,2,7.7c2.1,2,5,2.6,7.7,1.6l15.8-3.6c0.9-0.2,1.8-0.2,2.6,0c-0.7,0.7-1.2,1.6-1.5,2.7
	c-1.1,3.7,1,7.6,4.6,8.7l17.5,5.4l2,2.7c3.1,4.3,7.6,7.5,12.8,9.1c0.9,0.3,1.8,0.4,2.6,0.4c3.9,0,7.5-2.5,8.6-6.4L92.8,32
	C93,31.3,92.8,30.6,92.3,30z M83.4,49c-0.8,2.6-3.6,4.1-6.4,3.3c-4.3-1.3-8-4-10.7-7.6L64,41.4c-0.2-0.4-0.6-0.6-1-0.7l-18.2-5.6
	c-1.6-0.5-2.5-2.2-2-3.8c0.4-1.3,1.6-2.1,2.9-2.1c0.3,0,0.6,0,0.9,0.1l23.9,7.3l0,0c1.1,0.3,2.2-0.3,2.5-1.3
	c0.3-1.1-0.3-2.2-1.3-2.5l-29.5-9c-1.7-0.5-3.4-0.6-5.1-0.2L21,27.2c-0.1,0-0.2,0-0.2,0.1c-1.3,0.5-2.7,0.2-3.7-0.8
	c-1-1-1.4-2.3-1-3.7c0.3-1,1.1-1.9,2.1-2.3L49,11.3c1.1-0.3,2.3-0.3,3.5,0l22.4,6.8c1,0.3,1.9,0.9,2.7,1.7l11.1,12.1L83.4,49z
	 M53.2,50c0-1.1-0.9-2-2-2c-9.3,0-17.4,5.6-21,13.6c-3.6-8-11.7-13.6-21-13.6c-1.1,0-2,0.9-2,2c0,12,9.2,21.9,21,22.9V79h-3
	c-6.6,0-12,5.4-12,12c0,1.1,0.9,2,2,2h30c1.1,0,2-0.9,2-2c0-6.6-5.4-12-12-12h-3v-6.1C43.9,71.8,53.2,62,53.2,50z M49,52.1
	c-1,8.8-8,15.8-16.8,16.8C33.3,60,40.3,53,49,52.1z M11.3,52.1c8.8,1,15.8,8,16.8,16.8C19.3,67.8,12.3,60.9,11.3,52.1z M35.2,83
	c3.7,0,6.9,2.5,7.8,6H17.4c0.9-3.5,4-6,7.8-6H35.2z"/></svg>