<svg xmlns="http://www.w3.org/2000/svg" xmlns:xlink="http://www.w3.org/1999/xlink" data-name="Layer 1" viewBox="0 0 512 512"><defs><linearGradient id="a" x1="248.896" x2="248.896" y1="14" y2="488.152" gradientUnits="userSpaceOnUse"><stop offset="0" stop-color="#00efd1"/><stop offset="1" stop-color="#00acea"/></linearGradient><linearGradient id="b" x1="345.793" x2="345.793" y1="14" y2="488.152" xlink:href="#a"/></defs><g data-name="&lt;Group&gt;"><path fill="url(#a)" d="M432.181,338.906q-.253-.413-.547-.8a31.158,31.158,0,0,0-21.6-12.28,29.771,29.771,0,0,0-22.881,7.407c-15.111,13.253-37.387,32.683-53.464,46.692a57.088,57.088,0,0,1-35.178,14.385L258.43,396h0a2.356,2.356,0,0,1-1.88-1.377c-.031-.061-.064-.239-.1-.3l-4.5-8.288a4.23,4.23,0,0,1-.105-3.733,2.549,2.549,0,0,1,1.638-1.519l41.451-8.46c15.63-3.077,26.529-18.72,24.809-35.609A32.536,32.536,0,0,0,309.3,315.87a29.56,29.56,0,0,0-21.388-7.842l-55.428-2.451c-22.71-.878-42.05,3.8-64.688,15.619L141.085,335.16A27.052,27.052,0,0,0,117.305,321H86.46C71.549,321,59,333.1,59,348.011V478.453C59,493.365,71.549,505,86.46,505h30.845A26.358,26.358,0,0,0,144,478.453v-8.215l29.429-5.785a112.659,112.659,0,0,1,26.319-1.709l84.512,4.24c1.791.081,3.6.122,5.382.122,29.222,0,57.448-10.94,79.974-31.121l58.458-52.368c.073-.066.148-.133.218-.2a33.7,33.7,0,0,0,3.976-44.367ZM124,478.957A7.043,7.043,0,0,1,116.957,486H86.043A7.043,7.043,0,0,1,79,478.957V348.043A7.043,7.043,0,0,1,86.043,341h30.914A7.043,7.043,0,0,1,124,348.043ZM414.609,368.832l-58.328,52.256c-19.975,17.895-45.225,27.094-71.019,25.919l-84.469-4.24a132.908,132.908,0,0,0-30.536,1.967c-.119.019-.411.04-.529.064L144,449.851V356l32.877-17.081c19.592-10.232,35.508-14.11,54.687-13.364l55.919,2.471a10.865,10.865,0,0,0,1.141-.013c5.54-.371,10.569,4.435,11.21,10.721.673,6.61-3.258,12.87-8.837,13.969l-41.514,8.466a22.251,22.251,0,0,0-15.782,12.68,24.2,24.2,0,0,0,.7,21.722l4.462,8.155A21.987,21.987,0,0,0,258.9,415.521l.152,0,40.235-1.459a76.865,76.865,0,0,0,47.6-19.1c16.038-13.975,38.331-33.42,53.483-46.709a9.975,9.975,0,0,1,7.674-2.525,10.9,10.9,0,0,1,7.392,4.121l.03.049q.254.412.546.8A13.712,13.712,0,0,1,414.609,368.832Z" data-name="&lt;Compound Path&gt;"/><path fill="url(#b)" d="M417.612,209h11.1a9.779,9.779,0,0,0,7.778-15.993L404.083,153h10.949a10,10,0,0,0,8.874-5.394,9.664,9.664,0,0,0-.692-10.169L395.368,98h2.195a10.232,10.232,0,0,0,8.084-16.177L353.878,10.667a9.991,9.991,0,0,0-15.969-.3l-55.469,71.1a10.334,10.334,0,0,0-1.1,10.728,10.179,10.179,0,0,0,8.986,5.8h2.461L264.7,137.4a9.867,9.867,0,0,0,8.156,15.6h12.616l-32.411,40.1a9.67,9.67,0,0,0-1.246,10.4,9.825,9.825,0,0,0,9.024,5.5h14.418l-34.569,51.946a10.454,10.454,0,0,0-.5,10.519A10.236,10.236,0,0,0,249,277h87v37.614a10,10,0,1,0,20,0V277h86.583a10.145,10.145,0,0,0,8.777-5.363,10.493,10.493,0,0,0-.367-10.469ZM356,257V240.563l20.281-12.715a9.993,9.993,0,0,0-10.56-16.969L356,216.991V180.272a10,10,0,1,0-20,0v10.585l-1.67-1.321a9.992,9.992,0,1,0-12.863,15.293L336,217.013V257H267.709l34.568-51.908a10.486,10.486,0,0,0,.5-10.538A10.258,10.258,0,0,0,293.962,189H281.776l32.412-39.916A9.858,9.858,0,0,0,306.409,133h-14.2L320.3,93.4a9.663,9.663,0,0,0,.727-10.185A9.823,9.823,0,0,0,312.141,78h-1.332l34.71-44.5L377.914,78h-1.795a9.773,9.773,0,0,0-8.181,15.463L395.783,133H383.146a10,10,0,0,0-9.024,5.686,9.668,9.668,0,0,0,1.245,10.4L407.778,189H399.29a10.182,10.182,0,0,0-8.777,5.4,10.457,10.457,0,0,0,.367,10.45L424.261,257Z" data-name="&lt;Compound Path&gt;"/></g></svg>